<svg xmlns="http://www.w3.org/2000/svg" height="1em" viewBox="0 0 512 512"><path fill="currentColor" d="M 437.0193 437.0193 A 256 256 -45 1 0 74.9806 74.9806 A 256 256 -45 1 0 437.0193 437.0193 Z M 340.7114 269.0107 L 277.9203 410.2906 C 269.5057 429.3118 242.4943 429.3118 234.0797 410.2906 L 171.2886 269.0107 C 167.6116 260.6668 167.6116 251.333 171.2886 242.9892 L 234.0797 101.7093 C 242.4943 82.6881 269.5057 82.6881 277.9203 101.7093 L 340.7114 242.9892 C 344.4591 251.2623 344.3884 260.6669 340.7114 269.0107 Z M 224 256 A 32 32 -45 1 0 288 256 L 256 130 L 224 256 Z"/></svg>