<svg xmlns="http://www.w3.org/2000/svg" height="1em" viewBox="0 0 512 512"><path fill="currentColor" d="M 437.0193 437.0193 A 256 256 -45 1 0 74.9807 74.9807 A 256 256 -45 1 0 437.0193 437.0193 Z M 340.7114 269.0108 L 277.9203 410.2907 C 269.5057 429.3119 242.4943 429.3119 234.0797 410.2907 L 171.2886 269.0108 C 167.6117 260.6669 167.6117 251.3331 171.2886 242.9892 L 234.0797 101.7093 C 242.4943 82.6881 269.5057 82.6881 277.9203 101.7093 L 340.7114 242.9892 C 344.4591 251.2624 344.3883 260.6669 340.7114 269.0108 Z"/><path style="fill:#FF9900" d="M 171.2886 242.9892 L 234.0797 101.7093 C 242.4943 82.6881 269.5057 82.6881 277.9203 101.7093 L 340.7114 242.9892 C 260.7114 310 251.2886 310 171.2886 242.9892 Z"/><path fill="currentColor" d="M 288 256 A 32 32 -45 1 0 224 256 A 32 32 -45 1 0 288 256 Z"/></svg>